<?xml version="1.0" standalone="no"?>
<!DOCTYPE svg PUBLIC "-//W3C//DTD SVG 20010904//EN"
 "http://www.w3.org/TR/2001/REC-SVG-20010904/DTD/svg10.dtd">
<svg version="1.0" xmlns="http://www.w3.org/2000/svg"
 width="800.000000pt" height="800.000000pt" viewBox="0 0 800.000000 800.000000"
 preserveAspectRatio="xMidYMid meet">
<metadata>
Created by potrace 1.14, written by Peter Selinger 2001-2017
</metadata>
<g transform="translate(0.000000,800.000000) scale(0.100000,-0.100000)"
fill="#000000" stroke="none">
<path d="M2384 6990 c-15 -15 -217 -30 -421 -30 l-193 0 -50 -31 c-52 -32
-130 -48 -234 -49 -44 0 -53 4 -97 45 -27 25 -58 45 -70 45 -21 0 -22 -3 -15
-70 3 -38 5 -70 3 -70 -2 0 -55 -18 -120 -40 -64 -22 -121 -40 -127 -40 -6 0
-30 -9 -52 -20 -23 -11 -50 -20 -59 -20 -22 0 -62 -17 -111 -47 -50 -31 -150
-63 -194 -63 -42 0 -162 -53 -170 -75 -4 -8 -18 -15 -32 -15 -14 0 -33 -6 -41
-13 -19 -16 -89 -37 -124 -37 -14 0 -28 -4 -31 -9 -3 -4 -23 -11 -43 -15 -21
-3 -51 -13 -67 -21 -15 -8 -36 -15 -45 -15 -9 0 -27 -9 -41 -20 -14 -11 -31
-20 -37 -20 -10 0 -13 -153 -13 -730 0 -707 1 -730 19 -730 10 0 24 7 31 15
17 21 33 19 48 -5 9 -15 19 -19 36 -14 15 3 34 -1 50 -11 20 -14 38 -16 75
-11 38 5 53 3 65 -9 14 -15 16 -15 16 -1 0 8 10 41 21 73 17 44 37 72 88 120
36 34 71 63 78 63 6 0 19 10 27 21 10 14 21 19 32 15 15 -6 15 -8 2 -24 -9 -9
-18 -32 -21 -50 l-7 -32 40 6 40 7 0 -34 c0 -42 -24 -79 -51 -79 -10 0 -19 -4
-19 -10 0 -5 9 -10 20 -10 27 0 25 -16 -2 -24 -34 -9 -38 -8 -38 9 0 17 -36
20 -74 5 -31 -12 -36 -34 -5 -25 33 11 19 -16 -19 -34 -25 -13 -30 -21 -25
-39 4 -18 1 -25 -16 -29 -26 -7 -28 -29 -2 -36 10 -2 24 -14 31 -27 10 -19 9
-22 -9 -27 -12 -3 -21 -12 -21 -20 0 -12 8 -14 35 -10 l35 6 0 -54 c0 -33 5
-56 13 -59 6 -4 2 -4 -10 -2 -48 9 -39 -31 12 -58 57 -31 44 -86 -14 -64 -24
9 -83 -11 -96 -32 -3 -6 -17 -10 -31 -10 -17 0 -24 -6 -24 -19 0 -14 -5 -18
-20 -14 -11 3 -20 10 -20 16 0 6 -7 18 -15 27 -9 9 -21 36 -28 60 -7 24 -19
46 -26 48 -8 3 -11 0 -7 -6 4 -7 3 -20 -3 -29 -6 -13 -5 -24 5 -38 18 -24 18
-69 0 -84 -16 -14 -21 -8 -31 37 -8 38 -29 38 -33 -1 -2 -19 -9 -27 -23 -27
-10 0 -19 -6 -19 -14 0 -8 -8 -21 -18 -28 -32 -23 -61 -192 -41 -240 8 -20 9
-32 2 -36 -6 -4 -18 -35 -28 -69 -16 -59 -16 -100 0 -166 5 -19 3 -33 -7 -45
-12 -13 -16 -48 -17 -146 -2 -112 1 -134 19 -171 15 -30 20 -58 18 -91 -3 -53
-24 -71 -31 -27 -6 33 0 -938 6 -983 2 -17 7 -36 12 -43 4 -7 8 -57 9 -111 1
-63 6 -103 14 -113 14 -16 12 -171 -4 -358 -4 -55 -3 -98 4 -120 18 -53 17
-143 0 -168 -14 -20 -17 -21 -32 -6 -15 15 -16 4 -16 -149 0 -104 4 -166 10
-166 13 0 13 -37 0 -45 -6 -4 -10 -195 -10 -541 l0 -534 4000 0 4000 0 0 1814
c0 1441 -3 1816 -12 1823 -7 4 -407 9 -888 11 -481 1 -885 4 -897 7 -23 5 -23
8 -24 178 -1 188 -11 344 -27 422 -6 28 -13 109 -16 180 -3 72 -9 147 -12 168
-4 23 -2 43 6 52 7 9 9 26 5 45 -5 23 -3 30 9 30 21 0 20 24 -3 69 -21 40 -51
105 -76 166 -19 47 -175 203 -230 231 -22 11 -46 34 -56 53 -22 41 -35 51 -72
51 -19 0 -39 11 -60 34 -34 35 -64 47 -134 50 -23 1 -50 9 -60 18 -10 9 -30
19 -45 23 -15 4 -32 13 -39 21 -6 8 -20 14 -31 14 -10 0 -29 6 -41 14 -22 15
-46 22 -172 51 -38 9 -77 20 -85 24 -16 9 -129 13 -142 5 -4 -3 0 -22 8 -44
18 -45 15 -85 -6 -85 -17 0 -45 53 -55 102 -5 29 -60 130 -104 193 -10 14 -24
43 -32 65 -17 51 -48 100 -91 146 -46 50 -153 139 -167 139 -6 0 -19 8 -29 18
-108 107 -230 215 -257 226 -18 8 -52 33 -76 56 -23 23 -57 48 -73 55 -17 8
-58 33 -91 55 -33 21 -78 49 -100 60 -22 11 -47 24 -55 30 -8 5 -26 14 -40 20
-14 5 -32 14 -40 20 -8 5 -26 14 -40 20 -14 5 -32 14 -40 19 -16 9 -71 34
-165 77 -81 37 -182 74 -227 83 -21 5 -43 13 -50 19 -7 5 -33 15 -58 21 -25 7
-54 16 -65 20 -36 15 -158 42 -260 57 -55 8 -109 18 -120 23 -11 5 -61 12
-112 15 -54 3 -104 11 -122 20 -35 19 -34 19 -47 6z m-233 -307 c63 -57 70
-78 85 -272 8 -97 21 -222 29 -277 21 -141 20 -174 -4 -174 -25 0 -32 12 -32
53 0 64 -9 87 -34 87 -30 0 -38 -24 -23 -67 17 -47 3 -67 -52 -71 -23 -2 -53
-10 -66 -18 -25 -17 -55 -102 -47 -132 2 -10 -2 -23 -9 -29 -7 -6 -92 -16
-188 -22 -232 -15 -373 -29 -438 -43 -52 -11 -69 -8 -58 11 11 17 168 131 181
131 7 0 18 7 25 15 7 8 21 15 31 15 21 0 24 5 34 48 5 24 3 32 -8 32 -11 0
-14 19 -14 95 0 92 1 95 23 95 31 0 39 -16 20 -45 -17 -27 -21 -65 -7 -65 5 0
23 11 39 25 39 33 46 84 17 121 -22 27 -45 26 -45 -1 0 -15 -53 -30 -70 -20
-5 3 -10 14 -10 23 0 9 -5 24 -10 32 -7 12 -11 8 -16 -18 -7 -37 -16 -45 -37
-36 -12 4 -16 23 -15 82 0 110 2 116 48 108 22 -3 41 -2 45 4 8 13 -34 29
-102 40 -29 5 -60 13 -69 18 -14 8 -14 10 0 21 8 7 34 15 56 17 49 5 88 32
115 81 22 39 18 38 213 89 51 13 118 38 149 54 47 26 67 30 129 30 71 0 76 -1
115 -37z m-626 -133 c3 -5 1 -10 -4 -10 -6 0 -11 5 -11 10 0 6 2 10 4 10 3 0
8 -4 11 -10z m-235 -74 c0 -20 -19 -32 -82 -50 -37 -11 -58 -22 -58 -31 0 -15
26 -19 138 -20 27 0 46 -6 52 -15 5 -8 10 -84 10 -167 0 -196 13 -185 -218
-187 -200 -1 -218 4 -227 68 -3 23 -7 83 -9 134 -3 82 0 97 18 125 12 18 35
36 51 41 17 4 42 15 57 22 14 8 44 14 67 14 26 0 46 6 58 19 43 45 143 78 143
47z m-492 -298 c16 -34 24 -75 29 -150 4 -60 2 -68 -16 -78 -28 -14 -27 -38 2
-42 18 -2 22 -9 19 -33 -5 -60 -1 -90 14 -113 9 -13 13 -31 9 -40 -5 -15 -9
-13 -26 8 -19 24 -20 25 -34 6 -23 -31 -19 -56 9 -56 32 0 43 -18 23 -37 -22
-23 -87 -9 -87 17 0 15 -7 20 -24 20 -36 0 -42 -18 -11 -32 l26 -12 -23 -13
c-13 -7 -33 -12 -46 -13 -13 0 -35 -6 -50 -14 -15 -7 -63 -19 -107 -26 -116
-17 -130 -17 -130 0 0 10 13 16 40 18 22 2 46 8 53 14 7 6 30 14 50 17 44 8
45 20 4 41 -17 8 -36 27 -43 43 -11 26 -20 31 -47 28 -7 -1 -22 5 -34 14 -30
21 -45 19 -51 -6 -5 -17 -11 -20 -31 -15 -15 4 -26 2 -26 -4 0 -5 6 -10 14
-10 15 0 30 -69 20 -94 -8 -20 -28 -20 -44 -1 -14 17 -14 17 15 33 11 6 14 12
8 12 -7 0 -13 7 -13 15 0 8 -11 25 -25 37 -28 25 -32 43 -10 52 8 3 15 13 15
23 0 22 59 83 75 77 23 -9 37 23 30 66 -6 34 -10 40 -26 35 -10 -4 -19 -3 -19
1 0 12 42 54 54 54 6 0 17 9 24 20 7 11 20 20 30 20 10 0 40 16 67 34 33 24
53 32 64 27 9 -4 27 -5 41 -1 19 4 24 12 22 28 -3 20 1 22 50 22 32 0 62 6 74
15 26 19 29 19 42 -7z m1962 -36 c0 -15 -2 -15 -10 -2 -13 20 -13 33 0 25 6
-3 10 -14 10 -23z m99 -68 c6 -14 28 -32 49 -41 42 -17 52 -28 52 -60 0 -13 4
-23 8 -23 4 0 6 -16 4 -35 -4 -35 -15 -45 -27 -24 -5 7 -13 5 -26 -7 -26 -23
-45 -12 -54 33 -3 21 -13 45 -21 54 -15 16 -36 117 -28 131 8 13 31 -3 43 -28z
m-1399 -14 c0 -5 -9 -10 -19 -10 -11 0 -23 5 -26 10 -4 6 5 10 19 10 14 0 26
-4 26 -10z m-510 -85 c15 -18 6 -45 -15 -45 -18 0 -30 24 -21 45 7 19 20 19
36 0z m436 -34 c-9 -14 -26 -14 -46 -1 -13 9 -12 12 5 25 16 13 21 13 33 1 8
-8 11 -19 8 -25z m-92 8 c-7 -11 -34 -12 -34 -1 0 14 11 21 26 15 8 -3 11 -9
8 -14z m171 11 c3 -6 -1 -13 -10 -16 -19 -8 -30 0 -20 15 8 14 22 14 30 1z
m60 0 c3 -6 -1 -13 -10 -16 -19 -8 -30 0 -20 15 8 14 22 14 30 1z m-1209 -37
c-10 -10 -19 5 -10 18 6 11 8 11 12 0 2 -7 1 -15 -2 -18z m-27 -32 c-8 -11
-27 -39 -43 -63 -43 -61 -67 -88 -83 -88 -22 0 -15 21 29 79 50 67 75 91 95
91 13 0 14 -3 2 -19z m756 -6 c22 -8 48 -15 57 -15 21 0 27 -19 16 -49 -5 -15
-4 -37 3 -59 10 -29 9 -38 -8 -61 -11 -14 -31 -27 -44 -29 -13 -2 -50 -9 -81
-17 -32 -8 -63 -12 -70 -10 -21 8 -12 226 10 243 21 16 67 15 117 -3z m295 -6
c42 13 62 9 44 -9 -5 -5 -34 -24 -64 -42 -133 -80 -154 -84 -126 -30 9 17 13
38 10 46 -8 21 54 47 78 33 11 -8 29 -7 58 2z m1750 -28 c0 -5 -7 -14 -15 -21
-12 -10 -15 -10 -15 2 0 8 3 18 7 21 9 10 23 9 23 -2z m470 -52 c7 -11 9 -23
6 -26 -8 -9 -36 17 -36 33 0 21 18 17 30 -7z m913 -105 c43 -57 45 -87 5 -92
-29 -3 -68 13 -68 28 0 5 -13 29 -30 53 -30 45 -39 77 -20 77 6 0 10 7 10 16
0 24 55 -20 103 -82z m-4282 -23 c30 15 64 -16 67 -60 1 -20 3 -44 5 -55 4
-33 -36 -38 -91 -10 l-49 24 -1 66 -1 65 25 -20 c20 -16 31 -18 45 -10z m5094
-321 c3 -5 31 -17 63 -26 31 -10 66 -25 77 -35 11 -9 50 -36 86 -60 83 -56
104 -79 229 -258 33 -46 94 -200 105 -265 8 -48 -14 -46 -31 2 -5 18 -15 37
-22 44 -7 7 -12 18 -12 25 0 17 -59 98 -109 148 -21 22 -44 56 -50 76 -6 20
-23 46 -36 57 -14 12 -25 28 -25 35 0 21 -101 120 -165 162 -65 43 -94 59
-138 75 -16 5 -25 14 -22 20 8 13 42 13 50 0z m-4545 -80 c0 -5 -8 -10 -17
-10 -15 0 -16 2 -3 10 19 12 20 12 20 0z m9 -284 c19 -23 2 -75 -31 -92 -41
-21 -58 -12 -58 31 0 29 6 39 33 55 38 24 41 24 56 6z m-159 -356 c0 -19 -7
-33 -19 -40 -35 -18 -51 -12 -51 18 0 34 16 52 47 52 19 0 23 -5 23 -30z
m-270 -319 c5 -11 7 -33 4 -50 -4 -17 -3 -38 0 -47 6 -15 8 -15 26 1 29 26 50
13 50 -32 -1 -39 -22 -74 -52 -86 -23 -8 -25 -67 -3 -67 8 0 15 -7 15 -15 0
-8 -6 -15 -14 -15 -28 0 -36 -162 -10 -216 12 -25 13 -37 5 -53 -16 -30 -13
-55 9 -73 16 -15 19 -29 18 -93 -1 -48 -6 -80 -15 -86 -19 -17 -27 -77 -14
-106 9 -20 9 -28 1 -33 -8 -5 -9 -23 -5 -51 4 -30 0 -65 -14 -113 -11 -38 -18
-73 -15 -78 3 -5 6 -34 5 -64 0 -30 4 -52 8 -50 11 7 2 -83 -11 -110 -9 -20
-7 -120 6 -339 3 -51 0 -96 -9 -126 -7 -25 -10 -51 -7 -57 10 -15 6 -268 -4
-283 -9 -14 -13 -115 -13 -312 0 -60 -4 -97 -11 -97 -5 0 -10 11 -10 24 0 13
-5 26 -11 28 -18 6 -28 108 -20 200 4 46 4 96 -1 113 -11 41 -11 42 12 65 18
18 19 23 8 39 -14 20 -15 112 -4 1234 4 361 9 664 13 672 3 9 2 41 -3 73 l-7
57 -13 -50 c-7 -27 -13 -71 -13 -97 -1 -68 -21 -59 -22 10 -4 210 9 344 27
275 6 -23 36 -39 54 -28 5 3 10 17 10 31 0 29 15 31 30 5z m1670 -111 c0 -29
-34 -105 -51 -116 -5 -3 -9 -13 -9 -23 0 -11 -8 -29 -19 -42 -16 -20 -21 -21
-35 -10 -25 21 -22 107 4 123 11 7 20 17 20 21 0 14 74 86 83 80 4 -2 7 -17 7
-33z m-100 -251 c0 -11 -4 -18 -10 -14 -5 3 -7 12 -3 20 7 21 13 19 13 -6z
m-1825 -54 c2 -14 0 -27 -5 -30 -10 -6 -23 43 -14 56 8 14 16 4 19 -26z m15
-144 c0 -5 -7 -14 -15 -21 -13 -10 -15 -9 -15 9 0 12 6 21 15 21 8 0 15 -4 15
-9z m5450 -63 c0 -13 -63 -48 -87 -48 -12 0 -24 -4 -27 -9 -3 -5 -35 -26 -71
-47 -36 -21 -65 -44 -65 -50 0 -7 -9 -16 -20 -19 -11 -3 -20 -10 -20 -15 0 -4
-16 -28 -36 -52 -20 -23 -48 -68 -62 -98 -13 -30 -28 -63 -33 -72 -15 -31 -49
-176 -49 -212 0 -19 -4 -38 -10 -41 -14 -9 -13 219 1 287 6 29 18 64 27 78 9
14 23 40 32 58 44 89 242 247 329 262 36 6 91 -7 91 -22z m-5465 -27 c3 -5 1
-12 -5 -16 -5 -3 -10 1 -10 9 0 18 6 21 15 7z m-9 -86 c7 -27 -2 -62 -13 -51
-4 3 -12 22 -19 41 -11 32 -10 35 7 35 12 0 21 -10 25 -25z m2874 -545 c0 -5
-7 -10 -16 -10 -8 0 -12 5 -9 10 3 6 10 10 16 10 5 0 9 -4 9 -10z m3221 -40
c45 -24 79 -72 79 -113 0 -39 -48 -82 -99 -91 -78 -12 -169 56 -157 118 9 44
38 79 77 93 47 16 54 16 100 -7z m-1101 -47 c0 -30 -3 -44 -10 -37 -8 8 -3 84
6 84 2 0 4 -21 4 -47z m611 -93 c76 -21 158 -122 144 -177 -7 -31 -21 -29 -33
6 -23 65 -61 110 -117 136 -77 37 -74 57 6 35z m-636 -284 c-10 -112 -24 -131
-25 -31 0 89 7 128 22 119 6 -4 7 -37 3 -88z m-2327 41 c2 -10 -3 -17 -13 -17
-8 0 -20 -12 -25 -26 -8 -21 -13 -24 -25 -14 -16 13 -9 40 11 40 8 0 14 9 14
21 0 25 33 22 38 -4z m467 -37 c3 -5 -1 -10 -9 -10 -9 0 -16 5 -16 10 0 6 4
10 9 10 6 0 13 -4 16 -10z m1845 -327 c0 -7 -4 -13 -10 -13 -5 0 -10 12 -10
28 0 21 2 24 10 12 5 -8 10 -21 10 -27z m-2306 -48 c8 -21 -3 -45 -20 -45 -8
0 -14 10 -14 23 0 36 22 51 34 22z m-2174 -354 c0 -5 -7 -14 -15 -21 -12 -10
-15 -10 -15 2 0 8 3 18 7 21 9 10 23 9 23 -2z m4432 -48 c-5 -83 -9 -90 -11
-20 0 37 2 67 7 67 4 0 6 -21 4 -47z m-4832 -133 c0 -16 -4 -30 -10 -30 -11 0
-14 43 -3 53 11 12 13 8 13 -23z m156 -105 c4 -18 1 -32 -11 -45 -10 -11 -15
-25 -12 -33 3 -8 1 -20 -3 -28 -7 -11 -13 -10 -29 5 -26 24 -26 33 -1 41 15 5
19 12 14 31 -3 13 -4 31 0 39 9 24 35 17 42 -10z m-89 -77 c-3 -8 -6 -5 -6 6
-1 11 2 17 5 13 3 -3 4 -12 1 -19z m76 -75 c8 -7 -11 -33 -24 -33 -5 0 -9 9
-9 20 0 19 20 27 33 13z m-227 -89 c1 -66 -3 -94 -15 -94 -11 0 -24 136 -16
151 16 25 30 -1 31 -57z m214 -15 c0 -11 -4 -17 -10 -14 -5 3 -10 13 -10 21 0
8 5 14 10 14 6 0 10 -9 10 -21z m2230 -173 c0 -29 -19 -44 -30 -25 -9 14 5 49
20 49 6 0 10 -11 10 -24z m-145 -7 c7 -10 -21 -49 -36 -49 -11 0 -22 38 -14
50 8 13 42 13 50 -1z m55 -9 c12 -23 6 -40 -15 -40 -13 0 -25 21 -25 46 0 21
28 17 40 -6z m210 -212 c0 -5 -9 -8 -20 -8 -18 0 -19 3 -8 20 9 14 14 16 20 7
4 -7 8 -15 8 -19z m-1630 -188 c27 -37 23 -66 -8 -62 -12 2 -32 -4 -44 -12
-49 -34 -125 -9 -130 44 -3 22 2 25 44 31 25 4 55 12 65 18 30 18 51 12 73
-19z"/>
<path d="M1680 6076 c0 -8 -9 -18 -20 -21 -11 -4 -29 -24 -40 -46 -20 -38 -20
-39 -2 -39 11 0 33 7 50 16 28 13 32 21 32 54 0 21 -4 42 -10 45 -5 3 -10 -1
-10 -9z"/>
<path d="M1710 6009 c0 -5 11 -9 25 -9 14 0 25 2 25 4 0 2 -11 6 -25 8 -14 3
-25 1 -25 -3z"/>
<path d="M1530 5844 c0 -8 5 -12 10 -9 6 3 10 10 10 16 0 5 -4 9 -10 9 -5 0
-10 -7 -10 -16z"/>
<path d="M255 4219 c-8 -23 -1 -34 14 -24 13 8 15 45 2 45 -5 0 -13 -9 -16
-21z"/>
<path d="M330 4816 c0 -22 3 -27 11 -19 8 8 8 16 0 30 -9 16 -10 14 -11 -11z"/>
<path d="M285 4771 c-6 -4 -39 -14 -75 -20 -36 -7 -78 -19 -93 -26 -22 -11
-33 -12 -48 -2 -28 17 -40 -1 -46 -74 -6 -59 -5 -62 13 -54 10 5 36 10 57 11
21 1 48 5 62 8 13 3 35 1 49 -5 23 -11 29 -8 58 22 34 35 58 88 58 127 0 22
-18 29 -35 13z"/>
<path d="M420 4506 c0 -8 5 -18 10 -21 6 -3 10 1 10 9 0 8 -4 18 -10 21 -5 3
-10 -1 -10 -9z"/>
<path d="M1 1534 c0 -11 3 -14 6 -6 3 7 2 16 -1 19 -3 4 -6 -2 -5 -13z"/>
</g>
</svg>
